<svg xmlns="http://www.w3.org/2000/svg" viewBox="0 0 2048 2048">
  <g fill="#000000">
    <path fill-rule="evenodd" d="M386 1119C386 969 470 889 610 853C704 828 747 788 821 704C889 628 957 590 1066 590H1216C1323 590 1392 629 1458 704C1532 788 1576 828 1670 853C1810 889 1894 969 1894 1119V1192C1894 1242 1855 1281 1805 1281H1725C1686 1164 1578 1082 1450 1082C1322 1082 1213 1164 1174 1281H872C833 1164 724 1082 596 1082C468 1082 360 1164 321 1281H243C193 1281 154 1242 154 1192V1119Z M596 1515A178 178 0 1 0 596 1159A178 178 0 0 0 596 1515ZM596 1419A82 82 0 1 0 596 1255A82 82 0 0 0 596 1419ZM1450 1515A178 178 0 1 0 1450 1159A178 178 0 0 0 1450 1515ZM1450 1419A82 82 0 1 0 1450 1255A82 82 0 0 0 1450 1419Z"/>
    <path d="M1088 604C1138 577 1188 621 1168 675L1087 901H1261C1323 901 1351 974 1309 1018L916 1444C872 1492 793 1450 810 1388L896 1076H742C681 1076 651 1004 692 959Z"/>
    <path d="M1135 1043C1123 994 1175 955 1218 983L1608 1240C1658 1273 1643 1350 1584 1361L1431 1389L1561 1531C1593 1566 1591 1620 1556 1652L1496 1706C1461 1738 1407 1736 1375 1701L1244 1558L1188 1702C1166 1758 1085 1754 1069 1696Z"/>
  </g>
</svg>
