<svg xmlns="http://www.w3.org/2000/svg" viewBox="0 0 2048 2048" role="img" aria-label="Planet Motors icon">
  <defs>
    <linearGradient id="bg" x1="0" y1="0" x2="1" y2="1">
      <stop offset="0" stop-color="#06182b"/>
      <stop offset="1" stop-color="#02101f"/>
    </linearGradient>
    <linearGradient id="blue" x1="350" y1="560" x2="1700" y2="1480" gradientUnits="userSpaceOnUse">
      <stop offset="0" stop-color="#0a92ff"/>
      <stop offset="1" stop-color="#0070df"/>
    </linearGradient>
    <linearGradient id="green" x1="870" y1="640" x2="1170" y2="1350" gradientUnits="userSpaceOnUse">
      <stop offset="0" stop-color="#36e85d"/>
      <stop offset="1" stop-color="#10b838"/>
    </linearGradient>
    <linearGradient id="red" x1="1110" y1="1040" x2="1500" y2="1570" gradientUnits="userSpaceOnUse">
      <stop offset="0" stop-color="#ff2c24"/>
      <stop offset="1" stop-color="#df1010"/>
    </linearGradient>
    <filter id="softShadow" x="-20%" y="-20%" width="140%" height="140%">
      <feDropShadow dx="0" dy="18" stdDeviation="22" flood-color="#000000" flood-opacity="0.35"/>
    </filter>
  </defs>
  <rect width="2048" height="2048" rx="420" fill="url(#bg)"/>
  <g filter="url(#softShadow)">
    <path d="M386 1119
             C386 969 470 889 610 853
             C704 828 747 788 821 704
             C889 628 957 590 1066 590
             L1216 590
             C1323 590 1392 629 1458 704
             C1532 788 1576 828 1670 853
             C1810 889 1894 969 1894 1119
             L1894 1192
             C1894 1242 1855 1281 1805 1281
             L1725 1281
             C1686 1164 1578 1082 1450 1082
             C1322 1082 1213 1164 1174 1281
             L872 1281
             C833 1164 724 1082 596 1082
             C468 1082 360 1164 321 1281
             L243 1281
             C193 1281 154 1242 154 1192
             L154 1119Z"
          fill="none" stroke="url(#blue)" stroke-width="86" stroke-linecap="round" stroke-linejoin="round"/>
    <circle cx="596" cy="1337" r="178" fill="url(#blue)"/>
    <circle cx="596" cy="1337" r="82" fill="#06182b"/>
    <circle cx="1450" cy="1337" r="178" fill="url(#blue)"/>
    <circle cx="1450" cy="1337" r="82" fill="#06182b"/>
    <path d="M1088 604
             C1138 577 1188 621 1168 675
             L1087 901
             L1261 901
             C1323 901 1351 974 1309 1018
             L916 1444
             C872 1492 793 1450 810 1388
             L896 1076
             L742 1076
             C681 1076 651 1004 692 959Z"
          fill="url(#green)"/>
    <path d="M1135 1043
             C1123 994 1175 955 1218 983
             L1608 1240
             C1658 1273 1643 1350 1584 1361
             L1431 1389
             L1561 1531
             C1593 1566 1591 1620 1556 1652
             L1496 1706
             C1461 1738 1407 1736 1375 1701
             L1244 1558
             L1188 1702
             C1166 1758 1085 1754 1069 1696Z"
          fill="url(#red)"/>
  </g>
</svg>
